# xmcd CD database file
#
# Track frame offsets:
#	150
#	19877
#	44180
#	83032
#	106509
#	127061
#	149889
#	172817
#	195044
#	208208
#	254223
#	269612
#	285215
#	306043
#	329759
#
# Disc length: 4728 seconds
#
# Revision: 0
# Processed by: cddbd v1.5.2PL0 Copyright (c) Steve Scherf et al.
# Submitted via: CDex 1.70beta2
#
DISCID=e612760f
DTITLE=BB King - Lucille and Friends
DYEAR=1900
DGENRE=Blues
TTITLE0=When loves comes to town - with U2
TTITLE1=Playin' with my firends - with Robert Cray
TTITLE2=To know you is to love you - with Stevie Wonder
TTITLE3=Caught a touch of your love - with Grove Washington Jr.
TTITLE4=all you ever give is the blues - with Vernon Reid
TTITLE5=You shook me - with John Lee Hooker
TTITLE6=Spirit in the dark - with Diane Chuur
TTITLE7=Can't get enough with Mick Fleetwood
TTITLE8=Since I met you baby - with Gary Moore
TTITLE9=BB's blues - with Branford Marsalis
TTITLE10=Better not look down - with The Crusader
TTITLE11=Frosty - with Albert Collins
TTITLE12=Hummingbird - with Leon Russell and Joe Walsh
TTITLE13=Ghetto woman - with Gary Wright, Mac Rebennack and Ringo Starr
TTITLE14=Let the good times roll - with Bobby Bland
EXTD=
EXTT0=
EXTT1=
EXTT2=
EXTT3=
EXTT4=
EXTT5=
EXTT6=
EXTT7=
EXTT8=
EXTT9=
EXTT10=
EXTT11=
EXTT12=
EXTT13=
EXTT14=
PLAYORDER=
